<?xml version="1.0" encoding="utf-8"?>
<!-- Generator: Adobe Illustrator 21.0.2, SVG Export Plug-In . SVG Version: 6.00 Build 0)  -->
<svg version="1.1" id="_x3C_Layer_x3E_" xmlns="http://www.w3.org/2000/svg" xmlns:xlink="http://www.w3.org/1999/xlink" x="0px"
	 y="0px" viewBox="0 0 2760 1840" style="enable-background:new 0 0 2760 1840;" xml:space="preserve">
<style type="text/css">
	.st0{fill:#FFFFFF;}
	.st1{fill:#DAEBE8;}
	.st2{fill:#B8D5DC;}
	.st3{fill:#9AC2C9;}
	.st4{fill:#331832;}
	.st5{fill:#366F90;}
	.st6{fill:#FFB27D;}
	.st7{fill:#6DA49A;}
	.st8{fill:#58A1C7;}
	.st9{fill:#69B5D5;}
	.st10{fill:#5C305D;}
	.st11{fill:#080435;}
	.st12{fill:#EF8062;}
	.st13{fill:#88C2B8;}
	.st14{fill:#49857B;}
	.st15{fill:#73A0D1;}
	.st16{fill:#B0B271;}
	.st17{fill:#C2C68E;}
	.st18{fill:#558F85;}
	.st19{fill:#CCD39C;}
	.st20{opacity:0.5;}
	.st21{fill:#68A1BF;}
	.st22{fill:#BFD7D3;}
	.st23{fill:#444092;}
	.st24{fill:#764678;}
	.st25{fill:#945C98;}
</style>
<rect class="st0" width="2760" height="1840"/>
<g>
	<g>
		<path class="st1" d="M2760,345.1v1145.6c0,182.6-161.4,307.5-359.8,332.7c-241.8,30.7-506.3,14.6-950.2-13.5
			c-271.8-17.1-817.5,11.2-1090.2,13.5C161.1,1825,0,1674.4,0,1490.7V345.1C0,161.4,161.4,1.6,359.8,12.4
			c186.8,10.1,455.8,49.7,737.7,25.4c332.2-28.6,971.4-53.7,1302.7-25.4C2597.8,29.3,2760,161.2,2760,345.1z"/>
	</g>
	<g>
		<ellipse class="st2" cx="1295.9" cy="1520.5" rx="1086.1" ry="99.1"/>
	</g>
	<g>
		<g>
			<g>
				<polygon class="st3" points="690.5,1193.7 376.6,1193.7 390.4,1474.5 690.5,1474.5 				"/>
			</g>
		</g>
		<g>
			<g>
				<polygon class="st2" points="713.9,1172.9 363.8,1172.9 357.8,1203 713.9,1208 				"/>
			</g>
		</g>
		<g>
			<g>
				<path class="st2" d="M642.2,1432.7H429c-6.5,0-12-4.2-12.4-9.8l-7-72.4c-0.6-6.3,5.2-11.5,12.4-11.5h220.3
					c6.9,0,12.4,4.7,12.4,10.7v72.4C654.7,1427.8,649.1,1432.7,642.2,1432.7z"/>
			</g>
		</g>
		<g>
			<g>
				<path class="st2" d="M642.2,1317.8H429c-6.5,0-12-4.2-12.4-9.8l-7-72.4c-0.6-6.3,5.2-11.5,12.4-11.5h220.3
					c6.9,0,12.4,4.7,12.4,10.7v72.4C654.7,1313,649.1,1317.8,642.2,1317.8z"/>
			</g>
		</g>
		<g>
			<g>
				<g>
					<path class="st4" d="M441.3,1474.5l-3.5,13.9c-1.2,7.3-7.6,7.3-10.6,7.3c-4.7-0.1-8.1-6.9-6.9-13.2l1.5-8.1L441.3,1474.5
						L441.3,1474.5z"/>
				</g>
			</g>
		</g>
		<g>
			<g>
				<g>
					<path class="st4" d="M644.1,1474.5l3.5,13.9c1.2,7.3,7.6,7.3,10.6,7.3c4.7-0.1,8.1-6.9,6.9-13.2l-1.5-8.1L644.1,1474.5
						L644.1,1474.5z"/>
				</g>
			</g>
		</g>
		<g>
			<g>
				<g>
					<g>
						<path class="st5" d="M530.6,1250.3c-3.6,0-7-1.3-9-3.3c-1.5-1.6-2.1-3.7-1.5-5.9l0,0c1.3-5.5,5.4-8.8,10.6-8.8
							c5.7,0,11.6,3,11.6,8.1C542.2,1245.2,537.9,1250.3,530.6,1250.3z M522.4,1241.4c-0.4,1.6,0,3.1,1.1,4.2
							c1.5,1.6,4.2,2.6,7.2,2.6c5.7,0,9.2-4,9.2-8c0-3.8-4.7-6.1-9.2-6.1C524.6,1234.2,522.9,1239.8,522.4,1241.4L522.4,1241.4z"/>
					</g>
				</g>
			</g>
			<g>
				<g>
					<g>
						<path class="st5" d="M531.1,1261.1L531.1,1261.1c-1.6,0-2.9-1.2-2.9-2.7v-9.2c0-1.5,1.3-2.7,2.9-2.7l0,0
							c1.6,0,2.9,1.2,2.9,2.7v9.2C534,1259.9,532.6,1261.1,531.1,1261.1z"/>
					</g>
				</g>
			</g>
		</g>
		<g>
			<g>
				<g>
					<g>
						<path class="st5" d="M530.6,1368c-3.6,0-7-1.3-9-3.3c-1.5-1.6-2.1-3.7-1.5-5.9l0,0c1.3-5.5,5.4-8.8,10.6-8.8
							c5.7,0,11.6,3,11.6,8.1C542.2,1362.9,537.9,1368,530.6,1368z M522.4,1359.2c-0.4,1.6,0,3.1,1.1,4.2c1.5,1.6,4.2,2.6,7.2,2.6
							c5.7,0,9.2-4,9.2-8c0-3.8-4.7-6.1-9.2-6.1C524.6,1351.9,522.9,1357.5,522.4,1359.2L522.4,1359.2z"/>
					</g>
				</g>
			</g>
			<g>
				<g>
					<g>
						<path class="st5" d="M531.1,1378.8L531.1,1378.8c-1.6,0-2.9-1.2-2.9-2.7v-9.2c0-1.5,1.3-2.7,2.9-2.7l0,0
							c1.6,0,2.9,1.2,2.9,2.7v9.2C534,1377.6,532.6,1378.8,531.1,1378.8z"/>
					</g>
				</g>
			</g>
		</g>
	</g>
	<g>
		<g>
			<path class="st6" d="M1910.6,471.6c0,0-12.4,10.5-21.1,21.5c-8.7,11.1-38-25.5-38-25.5l26.4-39.8l50.9-0.1L1910.6,471.6z"/>
		</g>
		<g>
			<path class="st7" d="M2083.1,765.8c0,0-1.2-61.4-115.4-86.2c-88-19.1-186.3,16.6-209.1,88.5c-31.6,99.4-43.2,153.3-39.7,206.1
				c0,0,251.9-6.7,319.7,53.1c0,0,9-92.6,40.6-226.6C2083.8,781.2,2084.7,777,2083.1,765.8z"/>
		</g>
		<g>
			<path class="st4" d="M2038.9,1027.2c-2.6,14.6-75.7,12.1-164.4-1.6c-88.8-13.7-157.8-37-155.2-51.5s80.5-29,169.2-15.4
				C1977.1,972.4,2041.3,1012.6,2038.9,1027.2z"/>
		</g>
		<g>
			<path class="st4" d="M1845.7,914.9c0.1,3.4,3.2,6.1,6.8,6c3.6-0.1,6.6-3,6.5-6.5c-0.1-3.4-2.3-6.6-6-6.5
				C1847.7,908.2,1845.6,911.5,1845.7,914.9z"/>
		</g>
		<g>
			<path class="st4" d="M1861.4,860.5c0.1,3.4,3.2,6.1,6.8,6c3.6-0.1,6.6-3,6.5-6.5c-0.1-3.4-2.3-6.6-6-6.5
				C1863.5,853.8,1861.2,857,1861.4,860.5z"/>
		</g>
		<g>
			<path class="st4" d="M1879.9,799c0.1,3.4,3.2,6.1,6.8,6s6.6-3,6.5-6.5c-0.1-3.4-2.3-6.6-6-6.5
				C1881.9,792.2,1879.8,795.6,1879.9,799z"/>
		</g>
		<g>
			<path class="st4" d="M2081.3,1466.6c0,0,8.2,30.7-8.4,37.3c-16.7,6.6-65.5,13.9-46.5,26.7c10.9,7.3,60.3,0.3,74.3-0.2
				c14-0.5,27.5,4.1,37.4-4.2c11-9.2-17.4-82.1-17.4-82.1s-13.7,8.4-24.6,8.6C2080.4,1453,2081.3,1466.6,2081.3,1466.6z"/>
		</g>
		<g>
			<path class="st4" d="M1699.3,1482.7c0,0,0.4,21-16.3,27.6c-16.7,6.6-65.5,13.9-46.5,26.7c10.9,7.3,60.3,0.3,74.3-0.2
				c14-0.5,27.5,4.1,37.4-4.2c11-9.2-2.5-51.7-2.5-51.7s-11.8,5.7-22.8,5.9C1707.4,1487.1,1699.3,1482.7,1699.3,1482.7z"/>
		</g>
		<g>
			<path class="st5" d="M1796.9,969.1c0,0,76.1,268.3,114.7,337.3c26.7,47.9,97,121.2,136.4,159.5c50,48.6,96.9,1.9,94.2-17.4
				c-5-35.9-79.2-152.4-96.8-208.1c-17.6-55.6-29.1-220.9-29.1-220.9C2013.3,1009.9,1919.1,964.6,1796.9,969.1z"/>
		</g>
		<g>
			<path class="st5" d="M1741.5,980.9c0,0-132.8,231.2-135.6,306.9c-2.8,75.7,44.7,201.4,83.3,213s87.6-6.3,75.1-69.4
				c-12.6-63.2-27-128.7-12.9-154.4c14-25.7,246.1-269.5,205.9-285.6C1943.5,986.1,1798,950.8,1741.5,980.9z"/>
		</g>
		<g>
			<path class="st4" d="M1846.9,1138.8c-0.7,0-1.3-0.4-1.4-1c-0.1-0.4-11.1-41.2-15.6-61.6c-4.1-19-20.8-19.3-21.8-19.3l0,0l0,0
				c-0.8,0-1.4-0.5-1.4-1.3c0-0.8,0.6-1.3,1.4-1.4l0,0c0.6,0,20.2,0.2,24.8,21.5c4.3,20.4,15.5,61,15.6,61.4
				c0.2,0.8-0.2,1.4-1.1,1.6C1847.2,1138.8,1847,1138.8,1846.9,1138.8z"/>
		</g>
		<g>
			<path class="st7" d="M1846.1,469.6c0,0-181,96.3-180.8,151.1c0.2,55,96.8,94.2,93.3,147.4l151.6-92c0,0-119.1-59.5-114.7-75
				s100.3-90.4,98.7-99.3C1892.2,492.9,1854.9,464.7,1846.1,469.6z"/>
		</g>
		<g>
			<g>
				<path class="st4" d="M1680.1,495.9l-0.9-3.3c-2.2-8.3,3.3-16.8,12.3-19L2394,312c9-2,18.3,3,20.6,11.3l0.9,3.3
					c2.2,8.3-3.3,16.8-12.3,19l-702.5,161.6C1691.6,509.3,1682.3,504.3,1680.1,495.9z"/>
			</g>
			<g>
				<g>
					<path class="st8" d="M2376.8,457.8L2338,315.1c-2-7.3,2.8-14.8,10.9-16.7l107.8-24.8c8-1.8,16.1,2.6,18.2,10l38.8,142.7
						c2,7.3-2.8,14.8-10.9,16.7L2395,467.8C2387,469.7,2378.8,465.3,2376.8,457.8z"/>
				</g>
				<g>
					<path class="st9" d="M2344.3,338.6l-26.7-98.2c-1.4-5.2,2-10.3,7.6-11.6l116.5-26.8c5.6-1.3,11.3,1.8,12.7,7l26.7,98.2
						c1.4,5.2-2,10.3-7.6,11.6L2357,345.6C2351.5,346.9,2345.8,343.8,2344.3,338.6z"/>
				</g>
			</g>
		</g>
		<g>
			<path class="st6" d="M1938.9,415.9c0,0,0.1-15.3-17.7-5c0,0-8.2-8.4-16.8,1.6c0,0-8.8-6.1-16.8,3.1c0,0-9.3-3-12.7,5.8
				s-9.5,23.7-3.1,23.6c6.5,0,14.7-17,14.7-17s-0.6,13.2,4.1,13.9c4.7,0.8,14.4-19.4,14.4-19.4s-5.6,18,1.5,16.6
				c7.2-1.4,14.7-19.3,14.7-19.3s-6.8,18.5,1.3,18.8C1930.8,439.1,1940.5,421.8,1938.9,415.9z"/>
		</g>
		<g>
			<path class="st6" d="M1900.5,481c0,0,16.4-9.2,27.5-17.4c13.5-10,15.5-24.3,14.3-25c-2.8-1.9-7.5,0.2-9,1.6
				c-14.3,13.8-27.3,19.8-27.3,19.8l-29.4,6.8L1900.5,481z"/>
		</g>
		<g>
			<path class="st6" d="M2173.4,452.9c0,0,13.1-78.7,1.9-92c-11.3-13.3-16.1-1.8-23-2.5c-6.9-0.6-9.7,0.1-16.1,6.6
				c-6.3,6.5-15.1,0.4-19,6.7c-3.9,6.3-10.2,1.5-13.1,7.7c-2.9,6.3,7,52.8,21.1,64.5C2139.4,455.4,2173.4,452.9,2173.4,452.9z"/>
		</g>
		<g>
			<g>
				<path class="st7" d="M2077.1,581c-14.3,34.3-83.5,78.9-123.9,88.2c-10.1,2.4,121.5,152.7,122.4,147.4
					c6.1-43.6,46.7-98.3,60.8-119.4c60.4-90.8,60.7-143.1,51.4-266.7c0,0-83.5-21.5-84.1,7.4C2102.3,506.2,2090.8,548.3,2077.1,581z
					"/>
			</g>
		</g>
		<g>
			<g>
				<g>
					<path class="st6" d="M1937.7,646l-11.1-26.8l-3.3-7.8l-19-45.9l1.6,46.7l0.9,28l0.4,8.8c0.2,6-3.5,7.5-7.9,12.9
						c-1.8,2.3-13,15.7,1.4,20.7c17.8,6.3,49.4-6.5,60.7-21.5C1961.2,661.1,1941.4,654.7,1937.7,646z"/>
				</g>
				<g>
					<g>
						<path class="st10" d="M1863.3,550.1c0,0-2.2,11.5,2,25.5c4.2,14,16.9-21.8,16.9-21.8L1863.3,550.1z"/>
					</g>
					<g>
						<path class="st6" d="M1863.8,579.7c1.6-27.7,22.8-48.7,47.2-47.1c24.4,1.6,42.8,25.4,41.2,53c-1.6,27.7-22.8,48.7-47.2,47.1
							C1880.6,631.2,1862.2,607.4,1863.8,579.7z"/>
					</g>
					<g>
						<path class="st4" d="M1952.2,571.3l-21.5-0.9c-4.7-0.2-9.3-2.4-12.1-5.9c-4.9-6.3-10.4-9.3-30.3-7.4
							c-25.1,2.3-42.9-11-46.6-23.3c-3.8-12.5,8.4-21.9,21.6-16.5c13.1,5.4,6.6-9.2,18.7-11.4c22.5-4.2,28.2,12.1,46.7,10.6
							c24.4-2,69.6,13,52,54.7L1952.2,571.3z"/>
					</g>
					<g>
						<g>
							<path class="st11" d="M1902.9,584.4c-0.2,0.1-0.6,0-0.8-0.1c-0.5-0.2-0.6-0.8-0.2-1.2c0.1-0.2,3.4-5.7,11.3-3.9
								c0.5,0.1,0.8,0.5,0.7,1c-0.1,0.4-0.6,0.6-1.1,0.6c-5-0.1-9.3,3-9.4,3.2C1903.2,584.3,1903.1,584.4,1902.9,584.4z"/>
						</g>
					</g>
					<g>
						<path class="st11" d="M1910.3,591.4c-0.4,1.9-2,3.3-3.5,3c-1.5-0.3-2.5-2.2-2-4.1c0.4-1.9,2-3.3,3.5-3
							C1909.8,587.6,1910.6,589.4,1910.3,591.4z"/>
					</g>
					<g>
						<g>
							<path class="st11" d="M1873.7,580.7c-0.2-0.1-0.4-0.2-0.4-0.5c-0.1-0.4,0.2-0.9,0.6-1.1c0.2-0.1,5.5-2.8,8.8,2.6
								c0.2,0.3,0.1,0.9-0.2,1.2c-0.4,0.3-0.7,0.2-0.9,0c-2.8-2.6-7-2.3-7.3-2.2C1873.9,580.7,1873.8,580.7,1873.7,580.7z"/>
						</g>
					</g>
					<g>
						<path class="st11" d="M1881.1,588.3c0.5,1.9-0.5,3.8-2,4.1c-1.5,0.2-3.1-1.1-3.5-3.1c-0.5-2,0.5-3.8,2-4.1
							C1879.1,584.9,1880.7,586.3,1881.1,588.3z"/>
					</g>
					<g>
						<path class="st10" d="M1980.5,571.1c0,0-12.4,30.8-33.2,34.2c0,0,15.1-23.8-21.6-35.8C1925.8,569.5,1958.1,562.8,1980.5,571.1
							z"/>
					</g>
					<g>
						<path class="st6" d="M1952.4,589.2c-4.2,2.9-10,2.4-12.9-1.3c-2.8-3.7-1.6-8.9,2.6-11.9s10-2.4,12.9,1.3
							C1957.8,581,1956.6,586.3,1952.4,589.2z"/>
					</g>
					<g>
						<path class="st10" d="M1925.8,569.5c0,0,4.8,25-0.2,30.1c-5,5.1-40.8,9.1-58.1,3.9l0,0c0.9,16.2,14.2,29.8,31.3,31.5
							c5.6,0.5,11.5,0.2,17.1-1l0,0c11.6-2.6,22.6-7.8,26.6-18.3c1.2-3.2-4.6-22.2-4.6-22.2s-2.5-11.2,4-17.5
							C1942.1,576.2,1933.5,569.8,1925.8,569.5z"/>
					</g>
					<g>
						<path class="st4" d="M1865.5,515.2v-1.1c5.9-0.1,6-4.5,6-4.7h1.2C1872.6,509.3,1872.5,515,1865.5,515.2z"/>
					</g>
					<g>
						<path class="st0" d="M1880.6,550.7c-1.2-0.2-28.2-6.1-30.3-19.5c-0.7-3.9-0.1-6.6,1.6-8.1c2.7-2.5,7.7-1.6,12.2-0.9
							c0.7,0.1,1.3,0.2,2,0.3l-0.1,0.5c-0.6-0.1-1.3-0.2-2-0.3c-4.3-0.6-9.2-1.5-11.7,0.8c-1.6,1.4-2.1,3.9-1.4,7.7
							c2.1,12.9,29.6,19,29.8,19.1L1880.6,550.7z"/>
					</g>
					<g>
						<path class="st0" d="M1928.2,521.5c-19,0-29-9.6-29.1-9.7l0.5-0.3c0.1,0.1,10,9.6,28.7,9.6c3.4,0,7.2-0.3,11.1-1.1l0.1,0.5
							C1935.5,521.2,1931.7,521.5,1928.2,521.5z"/>
					</g>
					<g>
						<path class="st6" d="M1884,616c-0.2,0-0.4-0.1-0.6-0.2c-0.2-0.3-0.2-0.6,0.1-1c9.9-8,25-6.7,25.7-6.7c0.4,0,0.7,0.3,0.7,0.8
							c0,0.3-0.4,0.6-0.7,0.6c0,0,0,0-0.1,0c-0.1,0-15.1-1.3-24.5,6.4C1884.3,615.9,1884.2,616,1884,616z"/>
					</g>
				</g>
			</g>
			<g>
				<path class="st12" d="M1924.6,674.4c0,0-18.7-10.1-25.1-6.7c-6.5,3.4-7.6,25.1,1.2,29C1909.5,700.6,1932.6,681.4,1924.6,674.4z"
					/>
			</g>
			<g>
				<path class="st12" d="M1918.7,689.5c1.4,28.1,16.8,139.6,165.5,217c9.5,5,17.7,12,23.7,20.7l23.6,34.4
					c4.2,6.3,0.8,14.6-6.8,16.5l-44.9,11.4c-15.4,3.9-31.8,2.3-45.8-4.7c-48.3-24.4-165.4-131.3-136.4-306.8
					c1.3-7.5,6.8-0.8,14.2,2.2l0,0C1915.8,681.7,1918.5,685.4,1918.7,689.5z"/>
			</g>
			<g>
				<path class="st13" d="M1911.9,667.9c0,0,26.2-10.8,30.6-20.1c4.5-9.3,34,9.6,34,15.7c0,6.3-47.2,43.9-50.8,39.7
					C1922.1,699.2,1905.8,674.2,1911.9,667.9z"/>
			</g>
			<g>
				<path class="st13" d="M1911.9,667.9c0,0-4.8-9.2-3.3-14.3c0,0,0.9-4.5-3.2-4s-25.1,16.7-26.7,21.3s-0.2,25.7,7.2,26.7
					c7.3,1.1,22.8-22.6,24.6-25C1912.5,670.2,1911.9,667.9,1911.9,667.9z"/>
			</g>
			<g>
				<path class="st4" d="M1902.2,697.2c-0.6,0-1.2,0-1.6-0.2c-6.1-1.4-5.9-4.2-5.9-4.3l0.9,0.1c0,0-0.1,2.2,5.2,3.3
					c0.5,0.1,0.9,0.1,1.4,0.1c5.7,0,14.8-6,14.9-6.1l0.6,0.8C1917.3,691.2,1908.3,697.2,1902.2,697.2z"/>
			</g>
		</g>
		<g>
			<path class="st14" d="M1758.6,769.7c-0.1,0-0.4,0-0.5,0c-0.9-0.2-1.5-1.2-1.2-2c8.1-25.9,25.2-51.2,25.5-51.5
				c0.6-0.8,1.6-1,2.5-0.5s1.1,1.5,0.6,2.3c-0.1,0.2-17.1,25.2-25,50.7C1760,769.3,1759.3,769.7,1758.6,769.7z"/>
		</g>
	</g>
	<g>
		<g>
			<g>
				<polygon class="st4" points="1145.2,1426.4 1124.2,1431.3 1125.5,1130.7 1141.7,1138.4 				"/>
			</g>
		</g>
		<g>
			<g>
				<path class="st4" d="M1207.3,1441c0,0-111.3,1.8-148.4,2c-4.1,0-7-5.2-7-8.9l0,0c0-3.8,6-8.2,10.1-8.2
					c36.4,0.2,145.4,1.4,145.4,1.4c4.1,0,7.4,3,7.4,6.8l0,0C1214.8,1438,1211.4,1441,1207.3,1441z"/>
			</g>
		</g>
		<g>
			<g>
				<path class="st4" d="M1057.3,1453.3c1.4-7.4,8.4-12.3,16.8-12.3c8.2,0,16.8,5,16.8,12.6c0,9.5-10.4,16.1-18.7,16.1
					C1063.8,1469.7,1055.5,1462.7,1057.3,1453.3z"/>
			</g>
		</g>
		<g>
			<g>
				<path class="st4" d="M1176,1453.3c1.4-7.4,8.4-12.3,16.8-12.3c8.2,0,16.8,5,16.8,12.6c0,9.5-10.4,16.1-18.7,16.1
					C1182.6,1469.7,1174.2,1462.7,1176,1453.3z"/>
			</g>
		</g>
		<g>
			<g>
				<path class="st12" d="M1204.4,1100c-11.4-48.7-22.6-179.1-73.2-228c-54.7-52.9-166.6-60.8-196.9,2.8
					c-30.3,63.6,71.1,259.5,71.1,259.5s20.2,42.8,40.7,44.7s251.5,11.6,261.5-6.5C1332,1129.1,1310.4,1093,1204.4,1100z"/>
			</g>
		</g>
	</g>
	<g>
		<g>
			<g>
				<g>
					<g>
						<path class="st0" d="M928.3,1434.6l-5.9-7.1c-0.9-1.2-2.5-1.8-4.1-1.9l-5.4-0.1c-2.1,0-4,1.1-4.9,2.9l-0.9,1.8
							c-0.9,1.8-2.9,3-5,2.9l0,0c-2.8-0.1-5.2,1.7-5.5,4.3l-0.7,5.3c-0.1,1.2,0.1,2.4,0.9,3.3l4.3,5.8c1.2,1.6,3.3,2.4,5.4,2l11.1-2
							c1.3-0.2,2.5-0.9,3.2-1.9l7.6-9.5C929.9,1438.6,929.7,1436.2,928.3,1434.6z"/>
					</g>
				</g>
				<g>
					<g>
						<path class="st5" d="M909.2,1436.2c-0.7,0-1.4-0.1-2.1-0.4l-5.2-2.4l0.2-0.3l5.2,2.4c0.6,0.3,1.3,0.4,2.1,0.4l6.7-0.3v0.4
							l-6.7,0.3C909.3,1436.2,909.2,1436.2,909.2,1436.2z"/>
					</g>
				</g>
				<g>
					<g>
						<path class="st5" d="M913.2,1447.5h-1.3v-0.4h1.3c1.4,0,2.7-0.5,3.5-1.6l1.2-1.4c0.6-0.8,1.5-1.2,2.5-1.4l7-1.3l0.1,0.4
							l-7,1.3c-0.9,0.1-1.6,0.6-2.2,1.3l-1.2,1.4C916.1,1446.8,914.7,1447.5,913.2,1447.5z"/>
					</g>
				</g>
				<g>
					<g>
						<path class="st5" d="M902.4,1444.8c-1.1,0-2.2-0.3-3.2-0.9l-0.7-0.4l0.2-0.3l0.7,0.4c1.5,1,3.5,1.1,5.3,0.3l5-2.5l0.2,0.3
							l-5,2.5C904.2,1444.7,903.3,1444.8,902.4,1444.8z"/>
					</g>
				</g>
			</g>
			<g>
				<g>
					<g>
						<g>
							<path class="st0" d="M1023.6,1447.2l-6.2-15.6c-1.1-2.6-3.3-4.6-6.2-5.5l-9.5-2.9c-3.8-1.1-7.9-0.1-10.4,2.6l-2.7,2.8
								c-2.7,2.8-7,3.8-10.8,2.5l0,0c-4.8-1.6-10.3,0.4-12.4,4.7l-4.5,9.1c-0.9,2-1.2,4.3-0.5,6.5l4.2,12.5c1.2,3.4,4.5,5.9,8.4,6.4
								l21.1,2c2.5,0.2,4.9-0.3,6.9-1.7l19.2-13C1023.7,1455.2,1025.1,1451,1023.6,1447.2z"/>
						</g>
					</g>
					<g>
						<g>
							<path class="st5" d="M1000.9,1443.3l-12.2-2.9c-1.4-0.3-2.7-1-3.8-1.9l-7.6-7l0.6-0.5l7.6,7c0.9,0.9,2.1,1.5,3.4,1.7
								l12.2,2.9L1000.9,1443.3z"/>
						</g>
					</g>
					<g>
						<g>
							<path class="st5" d="M991.6,1462.7c-0.9,0-1.8-0.1-2.7-0.3l-2.3-0.6l0.2-0.6l2.3,0.6c2.5,0.6,5,0.3,7.2-1l3.1-1.9
								c1.5-1,3.4-1.4,5.3-1.2l13.3,1.4l-0.1,0.8l-13.3-1.4c-1.6-0.2-3.4,0.2-4.8,1.1l-3.1,1.9
								C995.2,1462.2,993.3,1462.7,991.6,1462.7z"/>
						</g>
					</g>
					<g>
						<g>
							<path class="st5" d="M974.3,1452.5c-3.2,0-6.1-1.3-8.1-3.7l-0.9-1.1l0.6-0.4l0.9,1.1c2.2,2.6,5.7,3.8,9.2,3.2l10.6-1.7
								l0.1,0.8l-10.6,1.7C975.5,1452.5,974.9,1452.5,974.3,1452.5z"/>
						</g>
					</g>
				</g>
				<g>
					<g>
						<g>
							<path class="st0" d="M962.8,1467.6l-5.5-13.8c-0.9-2.3-2.9-4.1-5.5-4.9l-8.4-2.6c-3.3-1-6.9-0.1-9.3,2.4l-2.5,2.5
								c-2.3,2.5-6.2,3.3-9.6,2.3l0,0c-4.3-1.4-9.2,0.4-11,4.2l-4,8c-0.9,1.8-1.1,3.8-0.4,5.7l3.8,11.1c1.1,3,4,5.3,7.4,5.6
								l18.7,1.8c2.1,0.2,4.3-0.3,6.1-1.5l17-11.5C962.9,1474.7,964.1,1471,962.8,1467.6z"/>
						</g>
					</g>
					<g>
						<g>
							<path class="st5" d="M942.8,1464.1l-10.8-2.6c-1.3-0.3-2.5-0.9-3.4-1.7l-6.8-6.1l0.5-0.4l6.8,6.1c0.8,0.8,1.9,1.3,3.1,1.6
								l10.8,2.6L942.8,1464.1z"/>
						</g>
					</g>
					<g>
						<g>
							<path class="st5" d="M934.4,1481.3c-0.8,0-1.6-0.1-2.5-0.3l-2.1-0.6l0.2-0.6l2.1,0.6c2.1,0.6,4.5,0.3,6.3-0.9l2.7-1.7
								c1.4-0.9,3.1-1.2,4.7-1.1l11.7,1.3l-0.1,0.6l-11.7-1.3c-1.5-0.2-2.9,0.2-4.2,1l-2.7,1.7
								C937.6,1480.9,936.1,1481.3,934.4,1481.3z"/>
						</g>
					</g>
					<g>
						<g>
							<path class="st5" d="M919.2,1472.2c-2.8,0-5.4-1.2-7.2-3.2l-0.8-1l0.6-0.4l0.8,1c1.9,2.3,5,3.2,8.1,2.8l9.4-1.5l0.1,0.6
								l-9.4,1.5C920.2,1472.2,919.6,1472.2,919.2,1472.2z"/>
						</g>
					</g>
				</g>
				<g>
					<g>
						<g>
							<path class="st5" d="M993,1493.7H925c-16.1,0-29.9-11.1-32-25.7l-24.3-162.6l186.9,12.8l-30.6,151.1
								C1021.9,1483.5,1008.5,1493.7,993,1493.7z M873.2,1309.5l23.6,158c1.9,12.8,14.1,22.5,28.2,22.5h67.9
								c13.7,0,25.5-8.9,27.9-21.3l29.9-147.2L873.2,1309.5z"/>
						</g>
					</g>
					<g>
						<g>
							<polygon class="st5" points="893.4,1453.6 1026.4,1448.5 1026.6,1452.2 893.6,1457.2 							"/>
						</g>
					</g>
					<g>
						<g>
							<polygon class="st5" points="885.3,1406.8 885.5,1403.2 1034.6,1409.8 1034.4,1413.4 							"/>
						</g>
					</g>
					<g>
						<g>
							<polygon class="st5" points="878.6,1362 878.8,1358.3 1043.1,1367.1 1042.9,1370.8 							"/>
						</g>
					</g>
					<g>
						<g>
							<polygon class="st5" points="979.6,1492.1 975.7,1491.8 991.1,1315.6 995.1,1315.9 							"/>
						</g>
					</g>
					<g>
						<g>
							<polygon class="st5" points="925.8,1311.5 929.7,1311.2 949.5,1491.7 945.5,1492 							"/>
						</g>
					</g>
				</g>
			</g>
		</g>
		<g>
			<g>
				<path class="st15" d="M871.2,1311.9l187.2,12c3.3,0.2,6.1-2,6.3-5.1l0.1-1.7c0.2-3-2.2-5.6-5.5-5.8l-187.2-12
					c-3.3-0.2-6.1,2-6.3,5.1l-0.1,1.7C865.4,1309.1,868,1311.7,871.2,1311.9z"/>
			</g>
		</g>
	</g>
	<g>
		<g>
			<g>
				<path class="st16" d="M533.7,1047.1c0,0,48.7-170.7,8.1-233.5c-40.6-62.8-176.4-72.1-226.4-26.3c-50,45.8-56.2,101.7,21.7,125.3
					s181.6-61.9,201-53c19.5,8.7-19.2,180.8-19.2,180.8L533.7,1047.1z"/>
			</g>
		</g>
		<g>
			<g>
				<g>
					<path class="st17" d="M296.2,868.3l-1.2-1.5c0.4-0.2,38.1-26.8,85.9-46.6c28.2-11.6,54.2-18.7,77.4-21
						c29.2-2.9,54.1,1.8,74,13.8l-1.1,1.5c-19.5-11.9-44-16.4-72.7-13.6c-23.1,2.3-48.9,9.3-76.8,20.8
						C334.1,841.7,296.6,868.1,296.2,868.3z"/>
				</g>
			</g>
		</g>
		<g>
			<g>
				<path class="st7" d="M588.3,1182.5H485.2c-15.7,0-28.9-8.8-30.3-20.5l-14.9-127h189.3l-13.5,128.6
					C614.9,1174.3,602.9,1182.5,588.3,1182.5z"/>
			</g>
		</g>
		<g>
			<g>
				<path class="st18" d="M636.2,1007.9v25.2c0,15.6-45,28.2-100.5,28.2s-100.5-12.6-100.5-28.2v-25.2c0-8,25.9-14.8,62.6-17.6
					c11.7-0.9,24.5-1.4,37.9-1.4C591.3,989.1,636.2,997.5,636.2,1007.9z"/>
			</g>
		</g>
		<g>
			<g>
				<path class="st11" d="M636.2,1007.9c0,1.5-0.9,3-2.7,4.4c-4.5,3.6-14.2,6.7-27.7,9.2c-5.3,1-11,1.8-17.2,2.6
					c-1.6,0.2-3.3,0.3-4.9,0.5c-0.9,0.1-2,0.2-2.9,0.3c-5.2,0.5-10.7,0.9-16.3,1.2c-0.4,0-0.8,0.1-1.2,0.1c-2.9,0.1-6,0.3-8.9,0.4
					c-2.1,0.1-4.1,0.1-6.2,0.2c-0.8,0-1.6,0-2.5,0c-3.3,0.1-6.6,0.1-9.9,0.1c-1.4,0-2.8,0-4.2,0c-0.8,0-1.8,0-2.6,0
					c-3.4,0-6.7-0.1-9.9-0.2c-5.4-0.1-10.7-0.4-15.8-0.8c-0.9-0.1-1.9-0.1-2.8-0.2l0,0c-0.7-0.1-1.5-0.1-2.2-0.2
					c-0.8-0.1-1.8-0.1-2.6-0.2c-5.6-0.4-10.9-1-16-1.6c-26.9-3.3-44.5-9.2-44.5-15.7c0-4,6.7-7.8,17.9-10.8
					c6.5-1.7,14.4-3.2,23.5-4.5c0.5-0.1,0.9-0.1,1.5-0.2l0,0c0.9-0.1,1.8-0.2,2.7-0.3c5.3-0.6,11-1.2,17-1.7c0.4,0,0.6,0,0.9-0.1
					c5.9-0.4,12.1-0.8,18.5-1c3.9-0.1,7.9-0.2,11.8-0.3c2.1,0,4.3,0,6.6,0c3.4,0,6.8,0,10.2,0.1c0.8,0,1.6,0,2.5,0
					c5.9,0.1,11.6,0.3,17.2,0.8c1.5,0.1,3.1,0.2,4.5,0.3c4.7,0.3,9.3,0.8,13.7,1.2c6.2,0.6,12.2,1.4,17.5,2.3
					c0.9,0.1,1.8,0.3,2.7,0.4c0.6,0.1,1.2,0.2,1.8,0.3c8.9,1.6,16.2,3.6,21.5,5.7C633,1002.4,636.2,1005.1,636.2,1007.9z"/>
			</g>
		</g>
		<g>
			<g>
				<path class="st17" d="M529.1,1045.1c0,0,37.7-173,103.9-213c66.4-40,192.9,6.9,215.9,68.3c23.1,61.4,2,114.2-79.2,103.7
					c-81.2-10.5-133.6-129.3-155.2-129.3c-21.6,0-68.9,170.2-68.9,170.2H529.1z"/>
			</g>
		</g>
		<g>
			<g>
				<g>
					<path class="st19" d="M831.7,985.2c-0.2-0.4-21.4-39.3-54.8-76.3c-19.6-21.7-39.4-38.5-59.1-49.9
						c-24.4-14.2-48.6-20.1-71.8-17.4l-0.2-1.8c23.6-2.7,48.2,3.2,73.1,17.7c19.8,11.5,39.9,28.5,59.6,50.2
						c33.6,37.2,54.8,76.3,54.9,76.8L831.7,985.2z"/>
				</g>
			</g>
		</g>
		<g>
			<g>
				<path class="st17" d="M528.5,1099.6c0,0,1.1-176.5-55.3-228c-56.2-51.5-190.4-29.1-226.4,26.7s-26.9,111.5,54.9,116.3
					c81.8,5,159.1-101.7,180.3-97.7c21.2,4,30.3,179.5,30.3,179.5L528.5,1099.6z"/>
			</g>
		</g>
		<g>
			<g>
				<path class="st19" d="M259.5,978.4l-1.1-0.8c0.2-0.3,29.7-34.7,70.5-64.9c37.9-27.9,93.6-57.8,144.5-41.7l-0.5,1.2
					c-50.2-15.7-105.6,13.9-143.1,41.5C289.1,943.8,259.7,978.1,259.5,978.4z"/>
			</g>
		</g>
		<g>
			<g>
				<path class="st19" d="M644.4,964.7c0,0-22.9-38.3-74.4-36.5c-51.5,1.7-101.4,144.8-82.2,185c29.3,61.4,129,68.7,170,0
					C678.2,1078.8,669.8,996.5,644.4,964.7z"/>
			</g>
		</g>
		<g>
			<g>
				<g>
					<path class="st17" d="M570.7,1122l-2-0.4c0.2-1,22.3-99.4,10.6-173.6l2-0.2C593.2,1022.3,571,1121,570.7,1122z"/>
				</g>
			</g>
		</g>
	</g>
	<g class="st20">
		<g>
			<g>
				<path class="st21" d="M1031,491.9c-2.2-45.3-46.6-83.7-96-83.7c-69.9,0-92.9,49.3-95.6,94.5c-2.8,47,42.2,79.2,91.6,79.2
					C980.4,582.1,1033.9,548.3,1031,491.9z"/>
			</g>
		</g>
		<g>
			<g>
				<path class="st22" d="M1013.6,496.7c0-36.1-39.2-74.5-78.5-75.7c-58.1-1.7-81.7,52.4-81.7,88.5s40.6,57.6,79.8,57.6
					C972.7,567.1,1013.6,532.7,1013.6,496.7z"/>
			</g>
		</g>
		<g>
			<g>
				<path class="st21" d="M943.6,495.4c-0.5-5-6.2-8.2-11.6-8.2c-5.4,0-11.1,5.9-11.1,10.9s5.7,8.9,11.1,8.9
					C937.4,507.2,944.6,504.6,943.6,495.4z"/>
			</g>
		</g>
		<g>
			<g>
				<g>
					<path class="st21" d="M932,500h-2c-1.1,0-2-0.8-2-1.8c0-1-2.5-4.3-1.4-4.3l1.1-2L930,443l-2.5,1.4c-0.6,0.9-1.9,1-2.7,0.4
						c-0.8-0.5-1.1-1.6-0.5-2.5l6-8c0.5-0.6,1.4-1,2.2-0.6c0.8,0.2,1.4,1,1.4,1.7l3.2,62.6C937.2,499,933,500,932,500z"/>
				</g>
			</g>
			<g>
				<g>
					<path class="st21" d="M938.7,444.7c-0.6,0-1.2-0.2-1.5-0.6l-7.4-4.9c-0.7-0.8,0.2-4.4,1.1-5.1c0.8-0.6,2-0.5,2.7,0.2l6.6,7.4
						c0.7,0.8,0.6,1.8-0.2,2.5C939.6,444.6,939.1,444.7,938.7,444.7z"/>
				</g>
			</g>
		</g>
		<g>
			<g>
				<g>
					<path class="st21" d="M896.9,505.8c-0.5,0-1.1-0.2-1.4-0.5l-5.7-5.5c-0.6-0.5-0.7-1.3-0.4-1.9c0.4-0.6,1.1-1.1,1.8-1.1l0,0
						l45.6-2.2c1.1,0,1.6,3.1,1.6,4.1v1.8c0,1-0.8,1.7-2,1.7c-1.1,0-3.5,0.9-3.5-0.1l1.5-1.7l-38.9-0.1l2.6,2.5
						c0.7,0.8,0.7,1.8,0,2.5C897.8,505.6,897.4,505.8,896.9,505.8z"/>
				</g>
			</g>
			<g>
				<g>
					<path class="st21" d="M891.1,500.3c-0.5,0-0.8-0.1-1.2-0.4c-0.8-0.6-0.9-1.7-0.2-2.5l5.4-6c0.7-0.8,1.9-0.9,2.7-0.2
						c0.8,0.6,0.9,1.7,0.2,2.5l-2.1,4.5C895.6,498.6,891.7,500.3,891.1,500.3z"/>
				</g>
			</g>
		</g>
	</g>
	<g>
		<g>
			<g>
				<path class="st4" d="M814.9,1518.2l-3.1-0.2c-2.3-0.2-4.1-3.6-4-7.4l23.6-497.1l44.8-19l-54.3,513.8
					C821.6,1514.1,818.4,1518.5,814.9,1518.2z"/>
			</g>
		</g>
		<g>
			<g>
				<path class="st4" d="M1453.2,1518.2l3.1-0.2c2.3-0.2,4.1-3.3,4-7.1l-22.9-471.3l-44.8-18l53.6,487.2
					C1446.5,1514.3,1449.7,1518.5,1453.2,1518.2z"/>
			</g>
		</g>
		<g>
			<g>
				<ellipse class="st21" cx="1137.9" cy="1021.3" rx="432.3" ry="43.1"/>
			</g>
			<g>
				<rect x="705.5" y="1001.4" class="st21" width="864.6" height="19.8"/>
			</g>
			<g>
				<ellipse class="st2" cx="1137.9" cy="1001.4" rx="432.3" ry="43.1"/>
			</g>
			<g>
				<path class="st23" d="M828.3,1032.7h-0.1c-36.4-3.8-65.5-8-86.3-12.7c-0.7-0.1-1.2-0.9-1.1-1.5c0.2-0.6,0.9-1.1,1.6-1
					c20.8,4.7,49.7,8.9,86,12.6c0.8,0.1,1.3,0.8,1.3,1.4C829.7,1032.3,829,1032.7,828.3,1032.7z"/>
			</g>
			<g>
				<path class="st23" d="M1496.8,1026.7c-0.7,0-1.3-0.4-1.4-1.1c-0.1-0.6,0.4-1.4,1.2-1.5c0.5-0.1,42.4-6.7,58.1-12.6
					c0.7-0.2,1.5,0,1.9,0.6c0.2,0.6,0,1.4-0.7,1.7c-16.1,6.1-56.9,12.5-58.7,12.8C1497,1026.7,1497,1026.7,1496.8,1026.7z"/>
			</g>
		</g>
	</g>
	<g>
		<g>
			<g>
				<path class="st0" d="M980.7,738.9c0,0,22.9,20.8,10.1,42.8c-12.8,22-37.1,16.8-48.3,6C931.1,776.7,980.7,738.9,980.7,738.9z"/>
			</g>
		</g>
		<g>
			<g>
				<path class="st12" d="M937.9,790.6c-6.2,1.9-13.1,0.5-17.8-3.8c-13.1-12-37.8-37.9-34.8-61.3c4.1-31.7,77.1-11.2,96.4,0
					C1000.1,736.3,1008.3,768.3,937.9,790.6z"/>
			</g>
		</g>
		<g>
			<g>
				<path class="st24" d="M849.4,995.1c0,0-5-16.9-8.7-17.5c-3.5-0.4-72.5-1.4-74.6,0c-2,1.4-8.7,17.1-8.1,17.5
					C758.6,995.4,793.5,1005.4,849.4,995.1z"/>
			</g>
		</g>
		<g>
			<g>
				<ellipse class="st25" cx="803.6" cy="978.1" rx="38" ry="3.1"/>
			</g>
		</g>
		<g>
			<g>
				<g>
					<path class="st24" d="M811.6,977.1l12.9-136.4l77.1-74.1l-3.9-3.7l-80.1,71.5l-21,142c0,0,0.7,1.7,8,1.7
						C811.1,978,811.6,977.1,811.6,977.1z"/>
				</g>
			</g>
		</g>
		<g>
			<g>
				<ellipse class="st4" cx="899.7" cy="763.4" rx="8" ry="7.3"/>
			</g>
		</g>
		<g>
			<g>
				<ellipse class="st4" cx="821.9" cy="838.5" rx="9.6" ry="8.8"/>
			</g>
		</g>
	</g>
	<g>
		<g>
			<path class="st4" d="M1440.3,941.5l-380.3-4c-8.1-0.1-14.7-6.1-14.7-13.7V710.5c0-7.4,6.6-13.6,14.7-13.7l375.5-5.3
				c8.2-0.1,14.9,5.8,15.1,13.4l4.9,222.6C1455.4,935.3,1448.6,941.6,1440.3,941.5z"/>
		</g>
		<g>
			<g>
				<path class="st4" d="M1314.7,910.1v51.2c0,13.3-9.6,24.1-21.6,24.1h-96.8c5.7,0,10.9-2.5,14.8-6.6c4.1-4.4,6.7-10.6,6.7-17.5
					v-51.3H1314.7z"/>
			</g>
			<g>
				<path class="st4" d="M1295.9,981.4v1.4c0,1.4-1.3,2.6-2.8,2.6h-101c-1.5,0-2.8-1.2-2.8-2.6v-1.4c0-1.4,1.3-2.6,2.8-2.6h101
					C1294.6,978.8,1295.9,979.9,1295.9,981.4z"/>
			</g>
		</g>
		<g>
			<path class="st24" d="M1455.8,941.5l-380.3-4c-8.1-0.1-14.7-6.1-14.7-13.7V710.5c0-7.4,6.6-13.6,14.7-13.7l375.5-5.3
				c8.2-0.1,14.9,5.8,15.1,13.4l4.9,222.6C1471,935.3,1464.2,941.6,1455.8,941.5z"/>
		</g>
	</g>
	<g>
		<g>
			<path class="st0" d="M2405.9,565.7c12.4,59.4,16.9,120,13.4,180.4c-0.2,3.6,5.7,3.4,6,0c3.5-60.9-1.2-121.9-13.6-181.8
				C2411,560.9,2405.2,562.3,2405.9,565.7L2405.9,565.7z"/>
		</g>
	</g>
	<g>
		<g>
			<path class="st0" d="M2488.1,552.5c16,84,21.2,169.7,15.8,254.8c-1.5,24-3.9,48-7.2,71.8c-0.5,3.4,5.5,3.4,6,0
				c11.4-85.3,12.2-171.6,2-257c-2.8-23.8-6.5-47.4-11-71C2493.1,547.5,2487.4,549,2488.1,552.5L2488.1,552.5z"/>
		</g>
	</g>
	<g>
		<g>
			<path class="st0" d="M2563.5,517.5c11.4,34,19.1,68.9,23.1,104.2c0.4,3.4,6.3,3.4,6,0c-4.1-35.9-11.8-71.3-23.3-105.6
				C2568.1,512.7,2562.3,514.1,2563.5,517.5L2563.5,517.5z"/>
		</g>
	</g>
</g>
</svg>
